<svg xmlns="http://www.w3.org/2000/svg" viewBox="0 0 64 64"><title>glasses</title><g id="Layer_22" data-name="Layer 22"><path d="M60.16911,22.22756l-.22767.10393a5.08922,5.08922,0,0,1-4.73917-.21757A14.82775,14.82775,0,0,0,47.54126,20.2a20.37774,20.37774,0,0,0-3.55.32,17.29941,17.29941,0,0,0-9.09159,4.32159,4.11681,4.11681,0,0,1-5.80675.00006A17.29936,17.29936,0,0,0,20.00128,20.52a20.352,20.352,0,0,0-3.54-.32,14.8412,14.8412,0,0,0-7.66733,1.91364A5.089,5.089,0,0,1,4.05376,22.33l-.22256-.1017A.94038.94038,0,0,0,2.5,23.0836v2.91991a.94322.94322,0,0,0,.5647.86393L4.78241,27.62c-.02863.15881-.05463.31951-.07117.46a13.69,13.69,0,0,0,11.22,15.51,14.01136,14.01136,0,0,0,2.41.21,13.77,13.77,0,0,0,11.95929-7.01056,1.95768,1.95768,0,0,1,3.39148,0A13.7701,13.7701,0,0,0,45.65125,43.8a14.01151,14.01151,0,0,0,2.41-.21,13.69481,13.69481,0,0,0,11.23-15.5c-.02057-.14411-.04865-.30823-.07861-.47l1.72367-.75357A.94039.94039,0,0,0,61.5,26.00483V23.083A.94038.94038,0,0,0,60.16911,22.22756Z" fill="#d9defb"/><path d="M27.88136,32.01651A9.75814,9.75814,0,0,1,8.67,28.629c.00821-.09767.076-.48225.10172-.57684.78311-2.908,5.39-4.50194,10.5381-3.59419s8.932,3.98118,8.67328,6.98168C27.97487,31.53734,27.90706,31.92192,27.88136,32.01651Z" fill="#3fa9f5"/><path d="M36.11188,32.01651A9.75813,9.75813,0,0,0,55.32326,28.629c-.0082-.09767-.076-.48225-.10171-.57684-.78312-2.908-5.39-4.50194-10.5381-3.59419s-8.932,3.98118-8.67329,6.98168C36.01836,31.53734,36.08618,31.92192,36.11188,32.01651Z" fill="#3fa9f5"/><path d="M61.60889,21.45117a1.93191,1.93191,0,0,0-1.855-.1333h-.00049l-.227.104a4.0747,4.0747,0,0,1-3.80713-.16407A15.80232,15.80232,0,0,0,47.541,19.2002a21.3352,21.3352,0,0,0-3.72364.335,18.36814,18.36814,0,0,0-9.61621,4.5913,3.10046,3.10046,0,0,1-4.40967,0,18.36463,18.36463,0,0,0-9.61474-4.59082,17.46152,17.46152,0,0,0-11.8999,1.72217,4.08235,4.08235,0,0,1-3.80811.1626l-.22168-.10156A1.94048,1.94048,0,0,0,1.5,23.0835v2.91992a1.94449,1.94449,0,0,0,1.16309,1.78027l1.019.44629A14.68526,14.68526,0,0,0,15.7583,44.5752a15.05263,15.05263,0,0,0,2.583.2246,14.75783,14.75783,0,0,0,12.83057-7.51953.99874.99874,0,0,1,1.64892,0A14.75782,14.75782,0,0,0,45.65137,44.7998a14.97553,14.97553,0,0,0,2.584-.22558A14.6961,14.6961,0,0,0,60.31836,28.228l1.01953-.44532A1.94042,1.94042,0,0,0,62.5,26.00488V23.083A1.93147,1.93147,0,0,0,61.60889,21.45117ZM58.8125,26.70361a.99989.99989,0,0,0-.583,1.09766c.02735.148.05274.29785.07178.43018a12.70556,12.70556,0,0,1-10.4126,14.373,12.91143,12.91143,0,0,1-2.2373.19531,12.75407,12.75407,0,0,1-11.08838-6.502,2.95733,2.95733,0,0,0-5.1333,0,12.75407,12.75407,0,0,1-11.08838,6.502,12.98773,12.98773,0,0,1-2.23633-.19433A12.70292,12.70292,0,0,1,5.70508,28.19385c.01367-.12158.03711-.26074.06152-.398a1.00012,1.00012,0,0,0-.583-1.0918L3.5,26.00342V23.17676l.13818.063a6.081,6.081,0,0,0,5.67334-.27,15.49475,15.49475,0,0,1,10.51612-1.46485,16.36366,16.36366,0,0,1,8.5664,4.05225,5.12522,5.12522,0,0,0,7.20459,0,16.36722,16.36722,0,0,1,8.56787-4.05274,15.54832,15.54832,0,0,1,10.51807,1.46485,6.07579,6.07579,0,0,0,5.67236.272l.14405-.06592.03515,2.77491ZM19.4834,23.47314c-5.72461-1.01025-10.74268.84815-11.67774,4.32032a6.76106,6.76106,0,0,0-.125.68994,10.70031,10.70031,0,0,0,8.77686,12.14941,10.95423,10.95423,0,0,0,1.91455.169,10.68893,10.68893,0,0,0,10.48486-8.564,6.93246,6.93246,0,0,0,.12207-.7124C29.28809,27.94385,25.20557,24.48193,19.4834,23.47314Zm7.43115,8.2876c-.00488.01807-.00879.03614-.01269.0542A8.75882,8.75882,0,0,1,9.66553,28.72363c.00976-.08838.05371-.33545.07177-.41113.51221-1.90332,3.30469-3.10742,6.72168-3.10742a15.47125,15.47125,0,0,1,2.67676.23779c4.541.80078,8.063,3.45215,7.85156,5.90527C26.97754,31.43555,26.93555,31.67285,26.91455,31.76074ZM56.1875,27.792c-.93506-3.4707-5.95557-5.32959-11.67773-4.31885-5.72217,1.00879-9.80469,4.47071-9.4961,8.05079a7.18227,7.18227,0,0,0,.12256.71337,10.68851,10.68851,0,0,0,10.48486,8.56446,10.95828,10.95828,0,0,0,1.91455-.169,10.68418,10.68418,0,0,0,8.78418-12.08838A7.05754,7.05754,0,0,0,56.1875,27.792ZM47.188,38.66406a8.71626,8.71626,0,0,1-10.09668-6.84912l-.01221-.05127c-.02051-.08691-.06347-.33105-.07275-.41015-.21192-2.4585,3.31006-5.10987,7.85107-5.91065a15.44375,15.44375,0,0,1,2.67822-.23779c3.416,0,6.20752,1.20263,6.71778,3.09717.02051.08593.06445.333.08056.47216A8.71141,8.71141,0,0,1,47.188,38.66406Z" fill="#0b151f"/></g></svg>